PathFileType	4	(X/Y/Z)	./resultDataOpenSim/trcMotMarkerGrf/sub10/qtm-12-03.trc
DataRate	CameraRate	NumFrames	NumMarkers	Units	OrigDataRate	OrigDataStartFrame	OrigNumFrames
250.000000	250.000000	8	24	m	250.000000	117	466
Frame#	Time	L.Toe.Tip			R.Toe.Tip			L.Ankle.Lat			R.Ankle.Lat			L.Ankle.Med			R.Ankle.Med			L.Heel			R.Heel			L.Knee.Lat			R.Knee.Lat			L.Knee.Med			R.Knee.Med			L.Thigh.Upper			R.Thigh.Upper			L.ASIS			R.ASIS			V.Sacral			L.Acromium			R.Acromium			C7			L.Elbow			R.Elbow			L.Wrist.Lat			R.Wrist.Lat
		X1	Y1	Z1	X2	Y2	Z2	X3	Y3	Z3	X4	Y4	Z4	X5	Y5	Z5	X6	Y6	Z6	X7	Y7	Z7	X8	Y8	Z8	X9	Y9	Z9	X10	Y10	Z10	X11	Y11	Z11	X12	Y12	Z12	X13	Y13	Z13	X14	Y14	Z14	X15	Y15	Z15	X16	Y16	Z16	X17	Y17	Z17	X18	Y18	Z18	X19	Y19	Z19	X20	Y20	Z20	X21	Y21	Z21	X22	Y22	Z22	X23	Y23	Z23	X24	Y24	Z24

117	0.464	-0.42497772	0.062483936	-0.1969102	-0.74599214	0.039689349	-0.015391307	-0.55838673	0.087090841	-0.20065271	-0.8830603	0.052747221	0.034634343	-0.53623017	0.10529675	-0.11900929	-0.8721556	0.084910135	-0.04927149	-0.613305	0.050221596	-0.14752467	-0.93864863	0.030839845	-0.010396922	-0.52950636	0.47159506	-0.20249395	-0.79205353	0.4485804	0.092087729	-0.50279124	0.44916797	-0.085886448	-0.79079836	0.45220156	-0.039138591	-0.67250101	0.83148291	-0.2337034	-0.71902337	0.85554608	0.14898651	-0.63126675	0.9423979	-0.16123979	-0.63514421	0.94933485	0.078531725	-0.83333569	0.95420862	-0.049493577	-0.71748443	1.4157365	-0.20135317	-0.73159985	1.4062093	0.12629148	-0.80867506	1.4365449	-0.04105974	-0.80835403	1.0824175	-0.260198	-0.76023606	1.0561316	0.19652201	-0.67480233	0.87641017	-0.26705963	-0.57956057	0.88645683	0.21523304
118	0.468	-0.40609472	0.064305355	-0.19555612	-0.74603164	0.039662496	-0.015521213	-0.54010786	0.0850991	-0.19962046	-0.88286377	0.052841118	0.034413938	-0.51887642	0.10417042	-0.11788791	-0.87187142	0.08490564	-0.049515997	-0.59433375	0.047238135	-0.14647387	-0.93862769	0.031021618	-0.010587987	-0.52267424	0.47041057	-0.20226287	-0.78869903	0.44793672	0.091517238	-0.49602144	0.44859451	-0.085527568	-0.78765307	0.45173997	-0.039738044	-0.66582942	0.83061529	-0.23394333	-0.71466105	0.85451694	0.14874985	-0.6248035	0.94137667	-0.16101866	-0.6302909	0.94820325	0.079013469	-0.82842592	0.95322501	-0.05167467	-0.7117298	1.4145871	-0.2012796	-0.72571413	1.4051289	0.12644977	-0.80281928	1.4355456	-0.04085591	-0.80379527	1.0818765	-0.2598969	-0.75206602	1.054588	0.19722342	-0.67269745	0.87455074	-0.26779179	-0.56879199	0.88742452	0.21391999
119	0.472	-0.38732137	0.066275538	-0.19402614	-0.74606946	0.039604003	-0.015671751	-0.52182855	0.083366091	-0.19851313	-0.88267621	0.052958114	0.034191464	-0.50146052	0.1033451	-0.11680626	-0.87165877	0.084879312	-0.049815561	-0.57555454	0.04476342	-0.14509328	-0.93860756	0.031210247	-0.010774838	-0.51583129	0.46912028	-0.20212932	-0.78532349	0.44725986	0.090950178	-0.48932724	0.44791476	-0.085217454	-0.78449033	0.45126522	-0.04037114	-0.65918703	0.82969105	-0.23422462	-0.71028666	0.85351838	0.14848072	-0.61812864	0.94032372	-0.16081435	-0.62566561	0.94700765	0.079439006	-0.82307495	0.95203436	-0.053918165	-0.70592516	1.4133847	-0.20119624	-0.71976694	1.4039984	0.12659584	-0.79698709	1.4344955	-0.040782173	-0.79965543	1.0812633	-0.26002952	-0.7438885	1.0530374	0.19789067	-0.67060764	0.87266693	-0.26853479	-0.55804816	0.88840852	0.2125836
120	0.476	-0.36868582	0.068409179	-0.19232574	-0.74604548	0.039540746	-0.01578971	-0.50359259	0.081932715	-0.197344	-0.8825314	0.05310895	0.033969051	-0.4840793	0.10284298	-0.11571132	-0.87144725	0.084843073	-0.050141556	-0.55689734	0.042645806	-0.14353434	-0.93858343	0.031406935	-0.01095922	-0.50896508	0.46775003	-0.20210788	-0.78191446	0.44655686	0.090364801	-0.48271608	0.44713122	-0.084971399	-0.78128725	0.45078806	-0.041035823	-0.65246039	0.82875127	-0.23453623	-0.70590372	0.85255521	0.14818538	-0.61144431	0.9392243	-0.16069441	-0.62123397	0.94574934	0.079801643	-0.81736385	0.95068322	-0.056001583	-0.70007002	1.4121326	-0.20110987	-0.71375542	1.4028188	0.12672072	-0.7912492	1.4333894	-0.041055495	-0.79562327	1.0806011	-0.26019724	-0.73570707	1.0514748	0.19851185	-0.6685285	0.87076265	-0.26928332	-0.54735852	0.88940519	0.21123096
121	0.48	-0.3502193	0.070726664	-0.19044722	-0.7459855	0.039469858	-0.015895249	-0.48545162	0.08080649	-0.19610554	-0.88243261	0.053289393	0.033753579	-0.46683788	0.10264163	-0.11452266	-0.87119788	0.084812027	-0.050476389	-0.53822731	0.040722103	-0.14202481	-0.93855178	0.031616869	-0.011140115	-0.50210597	0.46632158	-0.20220399	-0.77846409	0.44583927	0.089746456	-0.47619201	0.44624378	-0.084801692	-0.77802138	0.45031688	-0.041715331	-0.64568821	0.827803	-0.23486545	-0.70147527	0.85156998	0.1478647	-0.60492401	0.93807286	-0.16069963	-0.61668735	0.94449118	0.080108189	-0.81155964	0.94931071	-0.057907964	-0.69416959	1.4108353	-0.20102441	-0.70769077	1.401597	0.12682345	-0.7856376	1.4322247	-0.041757508	-0.79150808	1.0799072	-0.26019467	-0.72752511	1.0498964	0.19909419	-0.66644566	0.86884808	-0.27002519	-0.53674559	0.89040796	0.20987392
122	0.484	-0.33195766	0.073247001	-0.1883793	-0.74594076	0.039366205	-0.016029353	-0.46744295	0.079958406	-0.19477943	-0.88234717	0.053480768	0.033552302	-0.44978677	0.10270123	-0.11318938	-0.87091507	0.084794819	-0.05081208	-0.51947309	0.038927496	-0.1406708	-0.93851315	0.031848523	-0.011316584	-0.49530498	0.46484819	-0.20240293	-0.77498573	0.44512235	0.08909501	-0.46975091	0.44525217	-0.08470721	-0.77465121	0.44985905	-0.042381669	-0.63897248	0.82682622	-0.23520032	-0.6969569	0.85052152	0.14750456	-0.59854401	0.93688452	-0.16079805	-0.61168794	0.94331328	0.080368863	-0.80574918	0.94797825	-0.059618128	-0.68823571	1.4094949	-0.20093879	-0.70158967	1.4003407	0.12691285	-0.78008363	1.4310043	-0.042603245	-0.78732362	1.0791907	-0.26006589	-0.71939204	1.048299	0.19972291	-0.66435134	0.86694414	-0.27076751	-0.52622547	0.89140613	0.20852979
123	0.488	-0.31394505	0.075985352	-0.18612086	-0.74591282	0.039222165	-0.016189005	-0.44959451	0.079334554	-0.19336069	-0.88223549	0.053665463	0.033370946	-0.43297273	0.10296928	-0.11171823	-0.87061852	0.084792704	-0.051144864	-0.50062223	0.037226061	-0.13948603	-0.93847201	0.032109295	-0.011489333	-0.48858714	0.46333424	-0.20265954	-0.77152824	0.44441861	0.088417925	-0.46337531	0.44416093	-0.084667509	-0.77113255	0.44941125	-0.043011321	-0.6323003	0.82580978	-0.23553935	-0.6923295	0.84941434	0.14709167	-0.59216514	0.93567985	-0.1609335	-0.60622487	0.94222771	0.080581036	-0.79985059	0.94666203	-0.061043516	-0.68227653	1.4081088	-0.20085104	-0.69546381	1.3990523	0.12699492	-0.77448929	1.4297362	-0.043143403	-0.78311203	1.078452	-0.25997345	-0.71140292	1.0466761	0.20056074	-0.66224259	0.86507371	-0.27153663	-0.51580033	0.89239553	0.20720816
124	0.492	-0.29623866	0.078950088	-0.18369958	-0.74584139	0.039077609	-0.01631611	-0.4319595	0.078893729	-0.19189324	-0.88208045	0.053841938	0.033211114	-0.41645472	0.10339457	-0.11017975	-0.87031177	0.084802339	-0.051474065	-0.48173167	0.035590813	-0.13844661	-0.93843349	0.032396839	-0.011659908	-0.48191578	0.46177736	-0.20291496	-0.76817545	0.44370836	0.087721285	-0.45703671	0.44298258	-0.084642963	-0.76745628	0.44895057	-0.043607251	-0.62552903	0.82476002	-0.23588956	-0.68760487	0.84827685	0.14663146	-0.58567854	0.93446877	-0.16108506	-0.60057615	0.94117186	0.080732409	-0.79381803	0.94532784	-0.062189953	-0.67628928	1.4066743	-0.20076183	-0.68931504	1.3977287	0.12706719	-0.76883157	1.4284272	-0.043217111	-0.77875589	1.0776843	-0.26000324	-0.70360399	1.0450181	0.20168988	-0.66010418	0.86323938	-0.2723515	-0.50544291	0.89338368	0.2058891
